<?xml version="1.0" encoding="UTF-8" standalone="no"?>
<!-- Created with Inkscape (http://www.inkscape.org/) -->

<svg
   xmlns:dc="http://purl.org/dc/elements/1.1/"
   xmlns:cc="http://creativecommons.org/ns#"
   xmlns:rdf="http://www.w3.org/1999/02/22-rdf-syntax-ns#"
   xmlns:svg="http://www.w3.org/2000/svg"
   xmlns="http://www.w3.org/2000/svg"
   xmlns:xlink="http://www.w3.org/1999/xlink"
   xmlns:sodipodi="http://sodipodi.sourceforge.net/DTD/sodipodi-0.dtd"
   xmlns:inkscape="http://www.inkscape.org/namespaces/inkscape"
   width="210mm"
   height="297mm"
   viewBox="0 0 210 297"
   version="1.1"
   id="svg959"
   inkscape:version="0.92.3 (2405546, 2018-03-11)"
   sodipodi:docname="title-nb-blog.svg"
   inkscape:export-filename="C:\Users\vdegu\Bureau\JB\nb-blog\_static\title\title-nb-blog.png"
   inkscape:export-xdpi="500"
   inkscape:export-ydpi="500">
  <defs
     id="defs953">
    <linearGradient
       inkscape:collect="always"
       id="linearGradient1514">
      <stop
         style="stop-color:#000000;stop-opacity:1;"
         offset="0"
         id="stop1510" />
      <stop
         style="stop-color:#000000;stop-opacity:1"
         offset="1"
         id="stop1512" />
    </linearGradient>
    <linearGradient
       inkscape:collect="always"
       xlink:href="#linearGradient1514"
       id="linearGradient1518"
       gradientUnits="userSpaceOnUse"
       x1="14.363093"
       y1="7.4702377"
       x2="227.59674"
       y2="60.350266"
       gradientTransform="matrix(1.1546661,0,0,0.88209497,-15.978597,-5.9971662)" />
    <linearGradient
       gradientUnits="userSpaceOnUse"
       y2="-3.13459"
       x2="9.46041"
       y1="22.2512"
       x1="12.9634"
       id="paint0_linear">
      <stop
         id="stop905"
         stop-color="#FF0000" />
      <stop
         id="stop907"
         stop-color="#FF1500"
         offset="0.2317" />
      <stop
         id="stop909"
         stop-color="#FF3D00"
         offset="0.7367" />
      <stop
         id="stop911"
         stop-color="#FF4C00"
         offset="0.9987" />
    </linearGradient>
    <linearGradient
       gradientUnits="userSpaceOnUse"
       y2="-3.70073"
       x2="13.565"
       y1="21.6851"
       x1="17.068"
       id="paint1_linear">
      <stop
         id="stop914"
         stop-color="#FF0000" />
      <stop
         id="stop916"
         stop-color="#FF1500"
         offset="0.2317" />
      <stop
         id="stop918"
         stop-color="#FF3D00"
         offset="0.7367" />
      <stop
         id="stop920"
         stop-color="#FF4C00"
         offset="0.9987" />
    </linearGradient>
    <linearGradient
       gradientUnits="userSpaceOnUse"
       y2="-2.82709"
       x2="7.2317"
       y1="22.5587"
       x1="10.7347"
       id="paint2_linear">
      <stop
         id="stop923"
         stop-color="#FF0000" />
      <stop
         id="stop925"
         stop-color="#FF1500"
         offset="0.2317" />
      <stop
         id="stop927"
         stop-color="#FF3D00"
         offset="0.7367" />
      <stop
         id="stop929"
         stop-color="#FF4C00"
         offset="0.9987" />
    </linearGradient>
    <linearGradient
       gradientUnits="userSpaceOnUse"
       y2="-3.9342"
       x2="5.21432"
       y1="17.927"
       x1="12.869"
       id="paint3_linear">
      <stop
         id="stop932"
         stop-color="#FF8000" />
      <stop
         id="stop934"
         stop-color="#FF5B00"
         offset="0.6388" />
      <stop
         id="stop936"
         stop-color="#FF4C00"
         offset="0.9987" />
    </linearGradient>
    <radialGradient
       gradientTransform="matrix(10.2006,0,0,10.2006,16.1473,0.135867)"
       gradientUnits="userSpaceOnUse"
       r="1"
       cy="0"
       cx="0"
       id="paint4_radial">
      <stop
         id="stop939"
         stop-opacity="0.6"
         stop-color="#FFED1C"
         offset="0.00134333" />
      <stop
         id="stop941"
         stop-opacity="0.0264782"
         stop-color="#FFED1C"
         offset="0.9477" />
      <stop
         id="stop943"
         stop-opacity="0"
         stop-color="#FFED1C"
         offset="0.9914" />
    </radialGradient>
    <linearGradient
       gradientUnits="userSpaceOnUse"
       y2="18.8648"
       x2="12.6645"
       y1="3.33922"
       x1="9.89669"
       id="paint5_linear">
      <stop
         id="stop946"
         stop-color="#FF8000" />
      <stop
         id="stop948"
         stop-opacity="0.9773"
         stop-color="#FE7F02"
         offset="0.022669" />
      <stop
         id="stop950"
         stop-opacity="0.3337"
         stop-color="#ED582A"
         offset="0.6663" />
      <stop
         id="stop952"
         stop-opacity="0"
         stop-color="#E74939"
         offset="1" />
    </linearGradient>
    <linearGradient
       gradientUnits="userSpaceOnUse"
       y2="9.21433"
       x2="12.6442"
       y1="20.1156"
       x1="12.046"
       id="paint6_linear">
      <stop
         id="stop955"
         stop-color="#FFBC47" />
      <stop
         id="stop957"
         stop-opacity="0.8131"
         stop-color="#FFB137"
         offset="0.1869" />
      <stop
         id="stop959"
         stop-opacity="0.2777"
         stop-color="#FF940F"
         offset="0.7223" />
      <stop
         id="stop961"
         stop-opacity="0"
         stop-color="#FF8900"
         offset="1" />
    </linearGradient>
    <radialGradient
       gradientTransform="matrix(7.89073,0,0,6.40569,11.8972,17.1739)"
       gradientUnits="userSpaceOnUse"
       r="1"
       cy="0"
       cx="0"
       id="paint7_radial">
      <stop
         id="stop964"
         stop-color="#FFBC47"
         offset="0.00134333" />
      <stop
         id="stop966"
         stop-opacity="0.7068"
         stop-color="#FFBF4B"
         offset="0.2941" />
      <stop
         id="stop968"
         stop-opacity="0.4382"
         stop-color="#FEC656"
         offset="0.5624" />
      <stop
         id="stop970"
         stop-opacity="0.1801"
         stop-color="#FCD368"
         offset="0.8201" />
      <stop
         id="stop972"
         stop-opacity="0"
         stop-color="#FBE07A"
         offset="1" />
    </radialGradient>
    <radialGradient
       gradientTransform="matrix(7.64758,0,0,6.2083,11.8972,16.8495)"
       gradientUnits="userSpaceOnUse"
       r="1"
       cy="0"
       cx="0"
       id="paint8_radial">
      <stop
         id="stop975"
         stop-color="white"
         offset="0.00134333" />
      <stop
         id="stop977"
         stop-opacity="0"
         stop-color="white"
         offset="1" />
    </radialGradient>
    <radialGradient
       gradientTransform="matrix(9.39451,0,0,10.938,8.54394,18.2601)"
       gradientUnits="userSpaceOnUse"
       r="1"
       cy="0"
       cx="0"
       id="paint9_radial">
      <stop
         id="stop980"
         stop-opacity="0.6"
         stop-color="#FFED1C"
         offset="0.00134333" />
      <stop
         id="stop982"
         stop-opacity="0.0264782"
         stop-color="#FFED1C"
         offset="0.9477" />
      <stop
         id="stop984"
         stop-opacity="0"
         stop-color="#FFED1C"
         offset="0.9914" />
    </radialGradient>
    <radialGradient
       gradientTransform="matrix(-0.14957475,2.9653501,-2.4071397,-0.12141815,11.8976,16.8487)"
       gradientUnits="userSpaceOnUse"
       r="1"
       cy="0"
       cx="0"
       id="paint10_radial">
      <stop
         id="stop987"
         stop-color="white"
         offset="0.00134333" />
      <stop
         id="stop989"
         stop-opacity="0"
         stop-color="white"
         offset="1" />
    </radialGradient>
    <radialGradient
       gradientTransform="matrix(3.37018,0,0,3.37018,13.5387,3.98335)"
       gradientUnits="userSpaceOnUse"
       r="1"
       cy="0"
       cx="0"
       id="paint11_radial">
      <stop
         id="stop992"
         stop-color="#FFED1C"
         offset="0.00134333" />
      <stop
         id="stop994"
         stop-opacity="0.8013"
         stop-color="#FFEE2B"
         offset="0.1997" />
      <stop
         id="stop996"
         stop-opacity="0.4167"
         stop-color="#FFF254"
         offset="0.5839" />
      <stop
         id="stop998"
         stop-opacity="0"
         stop-color="#FFF686"
         offset="1" />
    </radialGradient>
    <radialGradient
       gradientTransform="matrix(1.5102543,-2.2741142,0.5164598,0.34298437,7.98155,5.60476)"
       gradientUnits="userSpaceOnUse"
       r="1"
       cy="0"
       cx="0"
       id="paint12_radial">
      <stop
         id="stop1001"
         stop-opacity="0.6"
         stop-color="#FFED1C"
         offset="0.00134333" />
      <stop
         id="stop1003"
         stop-opacity="0.0264782"
         stop-color="#FFED1C"
         offset="0.9477" />
      <stop
         id="stop1005"
         stop-opacity="0"
         stop-color="#FFED1C"
         offset="0.9914" />
    </radialGradient>
    <radialGradient
       gradientTransform="matrix(-0.21623413,2.4434207,-0.98315864,-0.08700608,8.52218,3.46406)"
       gradientUnits="userSpaceOnUse"
       r="1"
       cy="0"
       cx="0"
       id="paint13_radial">
      <stop
         id="stop1008"
         stop-color="#FFED1C"
         offset="0.00134333" />
      <stop
         id="stop1010"
         stop-opacity="0.8013"
         stop-color="#FFEE2B"
         offset="0.1997" />
      <stop
         id="stop1012"
         stop-opacity="0.4167"
         stop-color="#FFF254"
         offset="0.5839" />
      <stop
         id="stop1014"
         stop-opacity="0"
         stop-color="#FFF686"
         offset="1" />
    </radialGradient>
    <radialGradient
       gradientTransform="matrix(10.516,0,0,10.516,12.79,3.55061)"
       gradientUnits="userSpaceOnUse"
       r="1"
       cy="0"
       cx="0"
       id="paint14_radial">
      <stop
         id="stop1017"
         stop-color="#FF4C00"
         offset="0.00134333" />
      <stop
         id="stop1019"
         stop-opacity="0.8661"
         stop-color="#FF5B0C"
         offset="0.135" />
      <stop
         id="stop1021"
         stop-opacity="0.6067"
         stop-color="#FF842C"
         offset="0.3941" />
      <stop
         id="stop1023"
         stop-opacity="0.2512"
         stop-color="#FFC45F"
         offset="0.7491" />
      <stop
         id="stop1025"
         stop-opacity="0"
         stop-color="#FFF686"
         offset="1" />
    </radialGradient>
    <radialGradient
       gradientTransform="matrix(5.58172,0,0,5.58172,17.5729,12.0702)"
       gradientUnits="userSpaceOnUse"
       r="1"
       cy="0"
       cx="0"
       id="paint15_radial">
      <stop
         id="stop1028"
         stop-color="#FFED1C"
         offset="0.00134333" />
      <stop
         id="stop1030"
         stop-opacity="0.8013"
         stop-color="#FFEE2B"
         offset="0.1997" />
      <stop
         id="stop1032"
         stop-opacity="0.4167"
         stop-color="#FFF254"
         offset="0.5839" />
      <stop
         id="stop1034"
         stop-opacity="0"
         stop-color="#FFF686"
         offset="1" />
    </radialGradient>
    <radialGradient
       gradientTransform="matrix(5.9494,0,0,5.9494,6.147,14.0596)"
       gradientUnits="userSpaceOnUse"
       r="1"
       cy="0"
       cx="0"
       id="paint16_radial">
      <stop
         id="stop1037"
         stop-color="#FFED1C"
         offset="0.00134333" />
      <stop
         id="stop1039"
         stop-opacity="0.8013"
         stop-color="#FFEE2B"
         offset="0.1997" />
      <stop
         id="stop1041"
         stop-opacity="0.4167"
         stop-color="#FFF254"
         offset="0.5839" />
      <stop
         id="stop1043"
         stop-opacity="0"
         stop-color="#FFF686"
         offset="1" />
    </radialGradient>
    <radialGradient
       gradientTransform="matrix(0.691327,10.167424,-6.180739,0.4202551,11.8084,12.8571)"
       gradientUnits="userSpaceOnUse"
       r="1"
       cy="0"
       cx="0"
       id="paint17_radial">
      <stop
         id="stop1046"
         stop-opacity="0"
         stop-color="#FF4C00" />
      <stop
         id="stop1048"
         stop-opacity="0.9888"
         stop-color="#FF4C00"
         offset="0.9874" />
      <stop
         id="stop1050"
         stop-color="#FF4C00"
         offset="0.9987" />
    </radialGradient>
  </defs>
  <sodipodi:namedview
     id="base"
     pagecolor="#ffffff"
     bordercolor="#666666"
     borderopacity="1.0"
     inkscape:pageopacity="0.0"
     inkscape:pageshadow="2"
     inkscape:zoom="0.7"
     inkscape:cx="300.63079"
     inkscape:cy="1129.9187"
     inkscape:document-units="mm"
     inkscape:current-layer="layer1"
     showgrid="false"
     inkscape:window-width="1920"
     inkscape:window-height="1009"
     inkscape:window-x="-8"
     inkscape:window-y="1072"
     inkscape:window-maximized="1" />
  <metadata
     id="metadata956">
    <rdf:RDF>
      <cc:Work
         rdf:about="">
        <dc:format>image/svg+xml</dc:format>
        <dc:type
           rdf:resource="http://purl.org/dc/dcmitype/StillImage" />
        <dc:title />
      </cc:Work>
    </rdf:RDF>
  </metadata>
  <g
     inkscape:label="Calque 1"
     inkscape:groupmode="layer"
     id="layer1">
    <rect
       style="opacity:1;fill:#ff6600;fill-opacity:1;stroke:url(#linearGradient1518);stroke-width:0.26755688;stroke-miterlimit:4;stroke-dasharray:none;stroke-dashoffset:0;stroke-opacity:1"
       id="rect1504"
       width="209.48943"
       height="40.009308"
       x="0.6059795"
       y="0.59229285"
       inkscape:export-xdpi="500"
       inkscape:export-ydpi="500" />
    <text
       xml:space="preserve"
       style="font-style:normal;font-variant:normal;font-weight:bold;font-stretch:normal;font-size:4.23333311px;line-height:1.25;font-family:Calibri;-inkscape-font-specification:'Calibri Bold';letter-spacing:0px;word-spacing:0px;fill:#000000;fill-opacity:1;stroke:none;stroke-width:0.26458332"
       x="24.404999"
       y="29.551497"
       id="text1508"
       inkscape:export-xdpi="500"
       inkscape:export-ydpi="500"><tspan
         sodipodi:role="line"
         id="tspan1506"
         x="24.404999"
         y="29.551497"
         style="font-style:normal;font-variant:normal;font-weight:bold;font-stretch:normal;font-size:25.39999962px;font-family:'Bookman Old Style';-inkscape-font-specification:'Bookman Old Style Bold';fill:#ffffff;stroke-width:0.26458332">Blog</tspan></text>
    <g
       style="fill:none"
       id="g1162"
       transform="matrix(1.457335,0,0,1.457335,161.67414,4.2067083)">
      <path
         id="path869"
         d="m 15.7427,10.5085 c 0.0629,-3.16 -4.7371,-2.72571 -3.5028,-8.22286 0,0 -3.22287,1.26858 -2.65715,5.16 C 9.77703,8.78279 9.30846,9.78279 9.30846,9.78279 8.83418,9.87993 8.09703,8.93707 8.35417,7.47993 c 0,0 -1.69142,1.26286 -1.69142,2.88567 0,1.6229 0.78285,3.3429 0.78285,3.3429 -1.94857,-0.4229 -1.75428,-3.0514 -1.75428,-3.0514 0,0 -1.23429,1.6514 -1.23429,4.7657 0,2.4228 2.73143,6.2914 7.13717,6.2914 4.4057,0 7.9428,-3.4171 7.9428,-6.4571 0,-1.3315 -0.4514,-3.0515 -1.4285,-3.9886 0,0 0.1314,2.6571 -1.1829,2.5314 0,0 1.0857,-3.4685 -0.0514,-5.05711 0,0 -0.5486,1.71431 -1.1315,1.76571 z"
         inkscape:connector-curvature="0"
         style="fill:url(#paint0_linear)" />
      <path
         id="path871"
         d="m 15.7484,8.12591 c 1.2799,-2.36 -1.8915,-2.68571 -1.8972,-4.13714 0,0 -0.56,1.49714 0.7772,2.52 1.0914,0.82857 1.12,1.61714 1.12,1.61714 z"
         inkscape:connector-curvature="0"
         style="fill:url(#paint1_linear)" />
      <path
         id="path873"
         d="m 9.017,3.61133 c -0.48572,0.48 0.18286,2.46286 -1.33714,3.24571 0,0 -0.51429,-2.17714 1.33714,-3.24571 z"
         inkscape:connector-curvature="0"
         style="fill:url(#paint2_linear)" />
      <path
         id="path875"
         d="m 5.45703,11.4513 c -0.42286,0.7258 -1,2.0686 -1,3.9715 0,2.1257 2.70857,6.0343 7.13717,6.0343 4.3257,0 7.6857,-3.3315 7.6857,-6.1943 0,-1.0343 -0.2857,-2.3543 -0.92,-3.2915 -0.0457,0.5886 -0.1886,1.3886 -0.6286,1.8058 -0.2286,0.2171 -0.5143,0.3142 -0.8286,0.28 l -0.32,-0.0286 0.0972,-0.3029 c 0.0114,-0.0285 0.84,-2.7371 0.24,-4.34283 -0.24,0.58857 -0.6514,1.34853 -1.1543,1.38853 l -0.2857,0.0229 0.0057,-0.2857 c 0.0229,-1.18288 -0.7029,-1.81145 -1.5429,-2.53716 -1.2,-1.04 -2.5542,-2.21714 -2.0571,-5.20572 -0.8343,0.49143 -2.45714,1.84572 -2.05143,4.64 0.20573,1.4 -0.28,2.44 -0.29714,2.48572 L 9.47989,10.0113 9.35417,10.0342 C 9.11417,10.0799 8.86274,9.98277 8.63417,9.76562 8.3256,9.46277 8.0456,8.89134 8.03417,8.1142 7.5656,8.5942 6.91989,9.42277 6.91989,10.3656 c 0,1.5486 0.75428,3.2172 0.76,3.2343 L 7.89132,14.0685 7.38846,13.9599 C 6.07417,13.6742 5.58275,12.4513 5.45703,11.4513 Z"
         inkscape:connector-curvature="0"
         style="opacity:0.5;fill:url(#paint3_linear)" />
      <path
         id="path877"
         d="m 13.8513,3.98877 c -0.1143,0.86286 0.2286,2.10286 0.7771,2.52 0.5029,0.38286 1.0686,1.04 1.1143,1.61714 0.8572,-1.68 -0.3486,-2.30285 -1.04,-2.54857 C 14.4113,5.47448 13.8741,4.87448 13.8513,3.98877 Z"
         inkscape:connector-curvature="0"
         style="fill:url(#paint4_radial)" />
      <path
         id="path879"
         d="M 11.2171,3.74316 C 9.32,6.71459 11.7829,9.85174 10.5143,11.7317 9.24572,13.6117 7.96,11.8746 7.87429,10.6974 c 0,0 0.01143,3.8058 1.89143,5.3086 1.87998,1.5029 -3.61715,1.1772 -4.37143,-0.6571 0,0 0,6.1085 6.20001,6.1085 6.2,0 7.2343,-5.6857 7.2343,-5.6857 0,0 -2.2572,1.9257 -3.76,0.4229 0,0 1.1257,-1.9714 1.4114,-3.9943 0,0 -0.7771,0.4914 -1.9714,0.3029 0,0 0.6628,-2.84004 -0.6915,-3.77146 -1.7371,-1.19429 -3.2057,-4.04 -2.6,-4.98858 z"
         inkscape:connector-curvature="0"
         style="fill:url(#paint5_linear)" />
      <path
         id="path881"
         d="M 11.6914,7.23975 C 10.6971,8.54832 12.6343,11.9083 10.6,13.2397 9.47427,13.9769 8.82856,13.0912 8.82856,13.0912 c 0,0 0.30286,1.36 1.51424,2.5714 1.2115,1.2114 -1.82281,2.8514 -4.28567,0.7314 0,0 0.84571,5.0915 6.57717,4.2343 6.3257,-0.9428 5.8571,-5.6457 5.8571,-5.6457 0,0 -1.7143,2.6971 -4.1543,1.4057 0,0 1.5372,-2.1428 1.5372,-3.3714 0,0 -1.04,0.6171 -2.2286,0.0228 0,0 0.5657,-2.8571 -0.1086,-3.28567 C 11.92,8.71975 11.6914,7.23975 11.6914,7.23975 Z"
         inkscape:connector-curvature="0"
         style="fill:url(#paint6_linear)" />
      <path
         id="path883"
         d="m 15.7427,10.5085 c 0.0629,-3.16 -4.7371,-2.72571 -3.5028,-8.22286 0,0 -3.22287,1.26858 -2.65715,5.16 C 9.77703,8.78279 9.30846,9.78279 9.30846,9.78279 8.83418,9.87993 8.09703,8.93707 8.35417,7.47993 c 0,0 -1.69142,1.26286 -1.69142,2.88567 0,1.6229 0.78285,3.3429 0.78285,3.3429 -1.94857,-0.4229 -1.75428,-3.0514 -1.75428,-3.0514 0,0 -1.23429,1.6514 -1.23429,4.7657 0,2.4228 2.73143,6.2914 7.13717,6.2914 4.4057,0 7.9428,-3.4171 7.9428,-6.4571 0,-1.3315 -0.4514,-3.0515 -1.4285,-3.9886 0,0 0.1314,2.6571 -1.1829,2.5314 0,0 1.0857,-3.4685 -0.0514,-5.05711 0,0 -0.5486,1.71431 -1.1315,1.76571 z"
         inkscape:connector-curvature="0"
         style="opacity:0.5;fill:url(#paint7_radial)" />
      <path
         id="path885"
         d="m 15.7427,10.5085 c 0.0629,-3.16 -4.7371,-2.72571 -3.5028,-8.22286 0,0 -3.22287,1.26858 -2.65715,5.16 C 9.77703,8.78279 9.30846,9.78279 9.30846,9.78279 8.83418,9.87993 8.09703,8.93707 8.35417,7.47993 c 0,0 -1.69142,1.26286 -1.69142,2.88567 0,1.6229 0.78285,3.3429 0.78285,3.3429 -1.94857,-0.4229 -1.75428,-3.0514 -1.75428,-3.0514 0,0 -1.23429,1.6514 -1.23429,4.7657 0,2.4228 2.73143,6.2914 7.13717,6.2914 4.4057,0 7.9428,-3.4171 7.9428,-6.4571 0,-1.3315 -0.4514,-3.0515 -1.4285,-3.9886 0,0 0.1314,2.6571 -1.1829,2.5314 0,0 1.0857,-3.4685 -0.0514,-5.05711 0,0 -0.5486,1.71431 -1.1315,1.76571 z"
         inkscape:connector-curvature="0"
         style="opacity:0.5;fill:url(#paint8_radial)" />
      <path
         id="path887"
         d="m 4.8457,14.0971 c 0.13143,3.2285 2.78857,7.0971 6.9429,7.0971 4.1542,0 6.2285,-4.3828 6.36,-6.9486 0,0 -0.7772,1.5086 -2.5315,1.8115 -1.7543,0.3028 0.12,-3.0172 -1.1085,-4.9829 0,0 -1.0858,3.4229 -2.6286,3.5486 -1.5429,0.1257 -2.85144,-2.2629 -2.85144,-3.5486 0,0 -0.94857,2.3143 -0.71429,4.1543 0.36,2.7943 -3.46857,-1.1314 -3.46857,-1.1314 z"
         inkscape:connector-curvature="0"
         style="fill:url(#paint9_radial)" />
      <path
         id="path889"
         d="m 15.7427,10.5085 c 0.0629,-3.16 -4.7371,-2.72571 -3.5028,-8.22286 0,0 -3.22287,1.26858 -2.65715,5.16 C 9.77703,8.78279 9.30846,9.78279 9.30846,9.78279 8.83418,9.87993 8.09703,8.93707 8.35417,7.47993 c 0,0 -1.69142,1.26286 -1.69142,2.88567 0,1.6229 0.78285,3.3429 0.78285,3.3429 -1.94857,-0.4229 -1.75428,-3.0514 -1.75428,-3.0514 0,0 -1.23429,1.6514 -1.23429,4.7657 0,2.4228 2.73143,6.2914 7.13717,6.2914 4.4057,0 7.9428,-3.4171 7.9428,-6.4571 0,-1.3315 -0.4514,-3.0515 -1.4285,-3.9886 0,0 0.1314,2.6571 -1.1829,2.5314 0,0 1.0857,-3.4685 -0.0514,-5.05711 0,0 -0.5486,1.71431 -1.1315,1.76571 z"
         inkscape:connector-curvature="0"
         style="opacity:0.5;fill:url(#paint10_radial)" />
      <path
         id="path891"
         d="m 15.7484,8.12591 c 1.2799,-2.36 -1.8915,-2.68571 -1.8972,-4.13714 0,0 -0.56,1.49714 0.7772,2.52 1.0914,0.82857 1.12,1.61714 1.12,1.61714 z"
         inkscape:connector-curvature="0"
         style="opacity:0.5;fill:url(#paint11_radial)" />
      <path
         id="path893"
         d="m 9.017,3.61133 c -0.48,0.48 -0.17143,1.99428 -1.33714,3.24571 0,0 -0.51429,-2.17714 1.33714,-3.24571 z"
         inkscape:connector-curvature="0"
         style="fill:url(#paint12_radial)" />
      <path
         id="path895"
         d="m 9.017,3.61133 c -0.48572,0.48 0.18286,2.46286 -1.33714,3.24571 0,0 -0.51429,-2.17714 1.33714,-3.24571 z"
         inkscape:connector-curvature="0"
         style="opacity:0.5;fill:url(#paint13_radial)" />
      <path
         id="path897"
         d="m 15.7427,10.5085 c 0.0629,-3.16 -4.7371,-2.72571 -3.5028,-8.22286 0,0 -3.22287,1.26858 -2.65715,5.16 C 9.77703,8.78279 9.30846,9.78279 9.30846,9.78279 8.83418,9.87993 8.09703,8.93707 8.35417,7.47993 c 0,0 -1.69142,1.26286 -1.69142,2.88567 0,1.6229 0.78285,3.3429 0.78285,3.3429 -1.94857,-0.4229 -1.75428,-3.0514 -1.75428,-3.0514 0,0 -1.23429,1.6514 -1.23429,4.7657 0,2.4228 2.73143,6.2914 7.13717,6.2914 4.4057,0 7.9428,-3.4171 7.9428,-6.4571 0,-1.3315 -0.4514,-3.0515 -1.4285,-3.9886 0,0 0.1314,2.6571 -1.1829,2.5314 0,0 1.0857,-3.4685 -0.0514,-5.05711 0,0 -0.5486,1.71431 -1.1315,1.76571 z"
         inkscape:connector-curvature="0"
         style="opacity:0.5;fill:url(#paint14_radial)" />
      <path
         id="path899"
         d="m 15.7427,10.5085 c 0.0629,-3.16 -4.7371,-2.72571 -3.5028,-8.22286 0,0 -3.22287,1.26858 -2.65715,5.16 C 9.77703,8.78279 9.30846,9.78279 9.30846,9.78279 8.83418,9.87993 8.09703,8.93707 8.35417,7.47993 c 0,0 -1.69142,1.26286 -1.69142,2.88567 0,1.6229 0.78285,3.3429 0.78285,3.3429 -1.94857,-0.4229 -1.75428,-3.0514 -1.75428,-3.0514 0,0 -1.23429,1.6514 -1.23429,4.7657 0,2.4228 2.73143,6.2914 7.13717,6.2914 4.4057,0 7.9428,-3.4171 7.9428,-6.4571 0,-1.3315 -0.4514,-3.0515 -1.4285,-3.9886 0,0 0.1314,2.6571 -1.1829,2.5314 0,0 1.0857,-3.4685 -0.0514,-5.05711 0,0 -0.5486,1.71431 -1.1315,1.76571 z"
         inkscape:connector-curvature="0"
         style="opacity:0.25;fill:url(#paint15_radial)" />
      <path
         id="path901"
         d="m 15.7427,10.5085 c 0.0629,-3.16 -4.7371,-2.72571 -3.5028,-8.22286 0,0 -3.22287,1.26858 -2.65715,5.16 C 9.77703,8.78279 9.30846,9.78279 9.30846,9.78279 8.83418,9.87993 8.09703,8.93707 8.35417,7.47993 c 0,0 -1.69142,1.26286 -1.69142,2.88567 0,1.6229 0.78285,3.3429 0.78285,3.3429 -1.94857,-0.4229 -1.75428,-3.0514 -1.75428,-3.0514 0,0 -1.23429,1.6514 -1.23429,4.7657 0,2.4228 2.73143,6.2914 7.13717,6.2914 4.4057,0 7.9428,-3.4171 7.9428,-6.4571 0,-1.3315 -0.4514,-3.0515 -1.4285,-3.9886 0,0 0.1314,2.6571 -1.1829,2.5314 0,0 1.0857,-3.4685 -0.0514,-5.05711 0,0 -0.5486,1.71431 -1.1315,1.76571 z"
         inkscape:connector-curvature="0"
         style="opacity:0.25;fill:url(#paint16_radial)" />
      <path
         id="path903"
         d="m 15.7427,10.5085 c 0.0629,-3.16 -4.7371,-2.72571 -3.5028,-8.22286 0,0 -3.22287,1.26858 -2.65715,5.16 C 9.77703,8.78279 9.30846,9.78279 9.30846,9.78279 8.83418,9.87993 8.09703,8.93707 8.35417,7.47993 c 0,0 -1.69142,1.26286 -1.69142,2.88567 0,1.6229 0.78285,3.3429 0.78285,3.3429 -1.94857,-0.4229 -1.75428,-3.0514 -1.75428,-3.0514 0,0 -1.23429,1.6514 -1.23429,4.7657 0,2.4228 2.73143,6.2914 7.13717,6.2914 4.4057,0 7.9428,-3.4171 7.9428,-6.4571 0,-1.3315 -0.4514,-3.0515 -1.4285,-3.9886 0,0 0.1314,2.6571 -1.1829,2.5314 0,0 1.0857,-3.4685 -0.0514,-5.05711 0,0 -0.5486,1.71431 -1.1315,1.76571 z"
         inkscape:connector-curvature="0"
         style="opacity:0.25;fill:url(#paint17_radial)" />
    </g>
  </g>
</svg>
